<svg width="19" height="24" viewBox="0 0 19 24" fill="none" xmlns="http://www.w3.org/2000/svg">
<path d="M10.5469 2.83145H10.4974L10.5536 2.83918C14.1281 3.33127 16.875 6.28875 16.875 9.86719V18.5H16.8828V18.5078H17.5156C17.9783 18.5078 18.3516 18.8677 18.3516 19.3125V20.125C18.3516 20.2321 18.2604 20.3203 18.1484 20.3203H12.4531V20.3281H12.4453C12.4453 21.8927 11.1255 23.1641 9.5 23.1641C7.87454 23.1641 6.55469 21.8927 6.55469 20.3281H6.54688V20.3203H0.851562C0.739581 20.3203 0.648438 20.2321 0.648438 20.125V19.3125C0.648438 18.8677 1.02171 18.5078 1.48438 18.5078H2.11719V18.5H2.125V9.86719C2.125 6.28875 4.87194 3.33127 8.44638 2.83918L8.45312 2.88819V2.83145V1.84375C8.45312 1.28721 8.92132 0.835938 9.5 0.835938C10.0787 0.835938 10.5469 1.28721 10.5469 1.84375V2.83145ZM8.23438 20.3281H8.22656C8.22656 21.0056 8.79724 21.5547 9.5 21.5547C10.2028 21.5547 10.7734 21.0056 10.7734 20.3281H10.7656V20.3203H8.23438V20.3281ZM4.00781 9.86719V18.5H4.01562V18.5078H14.9844V18.5H14.9922V9.86719C14.9922 8.4533 14.4218 7.12589 13.384 6.1266C12.3463 5.12732 10.968 4.57812 9.5 4.57812C8.03201 4.57812 6.65369 5.12732 5.61597 6.1266C4.57824 7.12589 4.00781 8.4533 4.00781 9.86719Z" fill="#9B9B9B" stroke="white" stroke-width="0.015625"/>
</svg>
