<svg width="44" height="44" viewBox="0 0 44 44" fill="none" xmlns="http://www.w3.org/2000/svg">
<circle cx="22" cy="22" r="21" stroke="white" stroke-width="2"/>
<path fill-rule="evenodd" clip-rule="evenodd" d="M13.875 30.75C13.875 30.75 12.25 30.75 12.25 29.125C12.25 27.5 13.875 22.625 22 22.625C30.125 22.625 31.75 27.5 31.75 29.125C31.75 30.75 30.125 30.75 30.125 30.75H13.875ZM22 21C23.2929 21 24.5329 20.4864 25.4471 19.5721C26.3614 18.6579 26.875 17.4179 26.875 16.125C26.875 14.8321 26.3614 13.5921 25.4471 12.6779C24.5329 11.7636 23.2929 11.25 22 11.25C20.7071 11.25 19.4671 11.7636 18.5529 12.6779C17.6386 13.5921 17.125 14.8321 17.125 16.125C17.125 17.4179 17.6386 18.6579 18.5529 19.5721C19.4671 20.4864 20.7071 21 22 21V21Z" fill="#EEEEEE"/>
</svg>
