<?xml version="1.0" encoding="UTF-8"?>
<svg width="36px" height="36px" viewBox="0 0 36 36" version="1.1" xmlns="http://www.w3.org/2000/svg" xmlns:xlink="http://www.w3.org/1999/xlink">
    <!-- Generator: sketchtool 49.3 (51167) - http://www.bohemiancoding.com/sketch -->
    <title>F12C451D-B368-4B52-99A7-336A6F3F676A-42362-00033070B23FA933</title>
    <desc>Created with sketchtool.</desc>
    <defs></defs>
    <g id="Home" stroke="none" stroke-width="1" fill="none" fill-rule="evenodd">
        <g id="Home-with-hovers" transform="translate(-513.000000, -887.000000)">
            <g id="netflix-originals" transform="translate(58.000000, 620.000000)">
                <g id="movie3" transform="translate(444.000000, 35.000000)">
                    <g id="text-over" transform="translate(11.000000, 233.000000)">
                        <g id="btn-play" transform="translate(1.000000, 0.000000)">
                            <circle id="Oval" stroke="#FFFFFF" fill-opacity="0.506538723" fill="#000000" cx="17" cy="17" r="17"></circle>
                            <path d="M19.6201596,11.6947781 L25.8664345,22.2502832 C26.1476959,22.7255836 25.9903963,23.3388981 25.5150959,23.6201596 C25.3608934,23.7114098 25.1850058,23.7595522 25.005827,23.7595522 L12.5132773,23.7595522 C11.9609925,23.7595522 11.5132773,23.3118369 11.5132773,22.7595522 C11.5132773,22.5803734 11.5614197,22.4044858 11.6526699,22.2502832 L17.8989447,11.6947781 C18.1802062,11.2194777 18.7935207,11.0621781 19.2688211,11.3434395 C19.413627,11.4291292 19.5344699,11.5499721 19.6201596,11.6947781 Z" id="Triangle" fill="#E50A13" transform="translate(18.759552, 17.000000) rotate(90.000000) translate(-18.759552, -17.000000) "></path>
                        </g>
                    </g>
                </g>
            </g>
        </g>
    </g>
</svg>