<svg width="16" height="16" viewBox="0 0 16 16" fill="none" xmlns="http://www.w3.org/2000/svg">
<path d="M8 9.48206L13.1955 4.31846C13.2923 4.21883 13.4081 4.13936 13.5361 4.08469C13.6642 4.03002 13.8019 4.00124 13.9413 4.00004C14.0807 3.99884 14.2189 4.02523 14.3479 4.07768C14.4768 4.13013 14.594 4.20759 14.6926 4.30553C14.7911 4.40348 14.8691 4.51995 14.9218 4.64815C14.9746 4.77634 15.0012 4.91371 15 5.05221C14.9987 5.19072 14.9698 5.32761 14.9148 5.45487C14.8598 5.58214 14.7798 5.69725 14.6796 5.79348L8.74206 11.6946C8.54523 11.8901 8.27831 12 8 12C7.72169 12 7.45477 11.8901 7.25794 11.6946L1.32043 5.79348C1.22018 5.69725 1.14022 5.58214 1.08521 5.45487C1.0302 5.32761 1.00125 5.19072 1.00004 5.05221C0.998829 4.91371 1.02538 4.77634 1.07816 4.64815C1.13093 4.51995 1.20887 4.40348 1.30742 4.30553C1.40597 4.20759 1.52315 4.13013 1.65214 4.07768C1.78113 4.02523 1.91934 3.99884 2.05871 4.00004C2.19807 4.00124 2.3358 4.03002 2.46385 4.08469C2.59191 4.13936 2.70772 4.21883 2.80454 4.31846L8 9.48206Z" fill="white"/>
</svg>
