<svg width="134" height="36" viewBox="0 0 134 36" fill="none" xmlns="http://www.w3.org/2000/svg">
<path fill-rule="evenodd" clip-rule="evenodd" d="M12.5285 20.3732L12.5282 0H18.09V33.7509C16.0568 33.9631 14.0275 34.1889 12.0017 34.4273L5.56147 15.6545V35.2314C3.70399 35.4769 1.85028 35.7328 0 36V0.000365486H5.28554L12.5285 20.3732ZM23.45 0V33.3333C28.5631 32.8592 33.7 32.4685 38.86 32.1652V26.5866C35.5631 26.781 32.2752 27.0111 28.9972 27.2742V18.8292C29.5814 18.8233 30.2159 18.814 30.8804 18.8043C32.6627 18.7783 34.6616 18.7491 36.4891 18.7722V13.1938C34.4848 13.1888 31.2631 13.2224 28.9972 13.252V5.62816H38.86V0H23.45ZM42.8802 5.56159L42.88 0H60.3V5.5612H54.4059V31.1563C52.526 31.2052 50.6481 31.2631 48.7741 31.3333V5.56159H42.8802ZM64.32 0L64.3202 31.3333L70.0804 31.332V18.4727H77.8886V12.9031H70.0804V5.6197H80.4V0H64.32ZM89.4258 0V25.9557C92.6791 26.1046 95.9242 26.2847 99.16 26.4971V32C94.0448 31.6645 88.9081 31.4084 83.75 31.2337V0H89.4258ZM134 0L126.614 17.0372L133.998 35.9964L133.99 36C131.839 35.6947 129.685 35.4064 127.525 35.1301L123.378 24.4891L119.192 34.1423C117.208 33.9244 115.221 33.7182 113.23 33.5249L120.431 16.9233L113.836 0H119.972L123.665 9.47046L127.77 0H134ZM103.18 0V32.8644C104.97 33.0095 106.756 33.1651 108.54 33.3333V0H103.18Z" fill="white"/>
</svg>
