<svg width="85" height="23" viewBox="0 0 85 23" fill="none" xmlns="http://www.w3.org/2000/svg">
<path fill-rule="evenodd" clip-rule="evenodd" d="M11.6877 21.4974C10.9238 21.6316 10.1518 21.7097 9.36697 21.789C8.83826 21.8425 8.30375 21.8965 7.76198 21.9687L3.65658 9.94098V22.4849C2.50309 22.6064 1.44086 22.7643 0.354605 22.9259L0.354582 22.9259L0.354532 22.9259L0.354439 22.9259L0 22.9786V0H3.40996L8.076 13.0378V0H11.6877V21.4974ZM18.7543 8.41501C19.4644 8.41501 20.3674 8.39746 21.2515 8.38028C22.0991 8.3638 22.9292 8.34767 23.555 8.34767V11.938C21.9622 11.938 20.1003 11.938 18.7543 12.0053V17.3462C19.3524 17.308 19.9504 17.2662 20.549 17.2243C22.061 17.1187 23.5762 17.0128 25.1029 16.9645V20.4201L15.1649 21.2057V0H25.1029V3.59041H18.7543V8.41501ZM34.7268 3.59049H38.4507L38.4509 0H27.4137V3.59049H31.1376V20.1511C32.304 20.1063 33.5154 20.1063 34.7268 20.1063V3.59049ZM44.2833 8.16824H49.1963V11.7586H44.2833V19.9044H40.7611V0H50.7891V3.59041H44.2833V8.16824ZM61.0916 16.9791C59.6129 16.8879 58.1114 16.7953 56.6217 16.7627V0H53.0324V20.1511C56.3077 20.2186 59.5157 20.4203 62.7236 20.6224V17.0768C62.1839 17.0465 61.6393 17.0129 61.0916 16.9791ZM65.7521 20.8692L65.9406 20.8803C67.0287 20.9442 68.1714 21.0113 69.2741 21.1384V0H65.7521V20.8692ZM80.4459 10.9283L85 0H81.0741L78.5615 6.03638L76.206 0H72.3476L76.5203 10.7936L71.8991 21.3179C72.437 21.3921 72.9672 21.4472 73.4961 21.5021C74.2465 21.58 74.9943 21.6576 75.7577 21.7894L78.3821 15.6857L80.9618 22.3278C81.2981 22.3838 81.6343 22.4413 81.9706 22.4988C82.9804 22.6713 83.9901 22.8439 85 22.9786L80.4459 10.9283Z" fill="#D81F26"/>
</svg>
