<svg width="22" height="22" viewBox="0 0 22 22" fill="none" xmlns="http://www.w3.org/2000/svg">
<path fill-rule="evenodd" clip-rule="evenodd" d="M1.1 2.5H20.9C21.1979 2.5 21.4557 2.37631 21.6734 2.12891C21.8911 1.88151 22 1.58854 22 1.25C22 0.911455 21.8911 0.61849 21.6734 0.371095C21.4557 0.123695 21.1979 0 20.9 0H1.1C0.802082 0 0.544272 0.123695 0.326562 0.371095C0.108853 0.61849 0 0.911455 0 1.25C0 1.58854 0.108853 1.88151 0.326562 2.12891C0.544272 2.37631 0.802082 2.5 1.1 2.5ZM20.9 18.9444H1.1C0.802082 18.9444 0.544272 19.0681 0.326562 19.3155C0.108853 19.5629 0 19.8559 0 20.1944C0 20.533 0.108853 20.826 0.326562 21.0734C0.544272 21.3207 0.802082 21.4444 1.1 21.4444H20.9C21.1979 21.4444 21.4557 21.3207 21.6734 21.0734C21.8911 20.826 22 20.533 22 20.1944C22 19.8559 21.8911 19.5629 21.6734 19.3155C21.4557 19.0681 21.1979 18.9444 20.9 18.9444ZM1.1 9.47222H20.9C21.1979 9.47222 21.4557 9.59592 21.6734 9.84332C21.8911 10.0907 22 10.3837 22 10.7222C22 11.0608 21.8911 11.3537 21.6734 11.6011C21.4557 11.8485 21.1979 11.9722 20.9 11.9722H1.1C0.802082 11.9722 0.544272 11.8485 0.326562 11.6011C0.108853 11.3537 0 11.0608 0 10.7222C0 10.3837 0.108853 10.0907 0.326562 9.84332C0.544272 9.59592 0.802082 9.47222 1.1 9.47222Z" fill="white"/>
</svg>
