<?xml version="1.0" encoding="UTF-8"?>
<svg width="92px" height="25px" viewBox="0 0 92 25" version="1.1" xmlns="http://www.w3.org/2000/svg" xmlns:xlink="http://www.w3.org/1999/xlink">
    <!-- Generator: Sketch 49.3 (51167) - http://www.bohemiancoding.com/sketch -->
    <title>netflix-logo</title>
    <desc>Created with Sketch.</desc>
    <defs></defs>
    <g id="Home" stroke="none" stroke-width="1" fill="none" fill-rule="evenodd">
        <g id="Home-with-hovers" transform="translate(-58.000000, -22.000000)" fill="#D81F26" fill-rule="nonzero">
            <path d="M70.6502695,45.2609063 C69.2663164,45.5039336 67.8580156,45.5767969 66.4011992,45.7708594 L61.957707,32.7564531 L61.957707,46.329418 C60.5737539,46.4750547 59.3111797,46.6692969 58,46.8635391 L58,22 L61.6907813,22 L66.7410781,36.1073555 L66.7410781,22 L70.6502695,22 L70.6502695,45.2609063 Z M78.2987578,31.1053047 C79.8042695,31.1053047 82.110918,31.0324414 83.4948711,31.0324414 L83.4948711,34.9172852 C81.7708594,34.9172852 79.7556641,34.9172852 78.2987578,34.9901484 L78.2987578,40.7690781 C80.5812383,40.6234414 82.8636289,40.4290195 85.1701875,40.3561563 L85.1701875,44.0951836 L74.4137344,44.9451953 L74.4137344,22 L85.1701875,22 L85.1701875,25.8849336 L78.2987578,25.8849336 L78.2987578,31.1053047 Z M99.6172422,25.8850234 L95.5866719,25.8850234 L95.5866719,43.7556641 C94.2754922,43.7556641 92.9643125,43.7556641 91.701918,43.8040898 L91.701918,25.8850234 L87.6713477,25.8850234 L87.6713477,22 L99.6174219,22 L99.6172422,25.8850234 Z M105.930203,30.8382891 L111.247785,30.8382891 L111.247785,34.7231328 L105.930203,34.7231328 L105.930203,43.5371641 L102.117863,43.5371641 L102.117863,22 L112.971707,22 L112.971707,25.8849336 L105.930203,25.8849336 L105.930203,30.8382891 Z M119.284668,40.1377461 C121.494285,40.1861719 123.72798,40.3564258 125.889082,40.477625 L125.889082,44.314043 C122.41698,44.0953633 118.944789,43.8771328 115.399824,43.8040898 L115.399824,22 L119.284668,22 L119.284668,40.1377461 Z M129.166941,44.5811484 C130.405258,44.6541016 131.716438,44.7269648 132.979012,44.8724219 L132.979012,22 L129.166941,22 L129.166941,44.5811484 Z M150,22 L145.070902,33.8247852 L150,46.8635391 C148.543004,46.6692969 147.086187,46.4021914 145.629281,46.1593438 L142.837117,38.9723828 L139.996527,45.5767969 C138.587957,45.3337695 137.228262,45.2609063 135.82023,45.0666641 L140.822012,33.6789688 L136.305656,22 L140.481773,22 L143.03127,28.5315508 L145.75084,22 L150,22 Z" id="netflix-logo"></path>
        </g>
    </g>
</svg>