<svg width="22" height="22" viewBox="0 0 22 22" fill="none" xmlns="http://www.w3.org/2000/svg">
<path fill-rule="evenodd" clip-rule="evenodd" d="M21.6632 20.1739L16.3668 14.8696C17.8139 13.0725 18.4723 11.0073 18.3421 8.67391C18.2119 6.34057 17.3219 4.34783 15.6722 2.69565C13.8778 0.898541 11.7144 0 9.18191 0C6.64945 0 4.48605 0.898541 2.69162 2.69565C0.897198 4.49276 0 6.65941 0 9.19565C0 11.7319 0.897198 13.8985 2.69162 15.6957C4.34133 17.3478 6.33109 18.2391 8.66095 18.3696C10.9908 18.5 13.0529 17.8406 14.8473 16.3913L20.1438 21.6957C20.3753 21.8986 20.6285 22 20.9035 22C21.1784 22 21.4172 21.8986 21.6198 21.6957C22.1118 21.2029 22.1263 20.6957 21.6632 20.1739ZM14.4132 14.4348C12.9661 15.8841 11.2223 16.6087 9.18191 16.6087C7.14147 16.6087 5.39772 15.8841 3.95061 14.4348C2.50349 12.9855 1.77994 11.2391 1.77994 9.19565C1.77994 7.15216 2.50349 5.4058 3.95061 3.95652C5.39772 2.50724 7.14871 1.78261 9.20361 1.78261C11.2585 1.78261 12.995 2.50724 14.4132 3.95652C15.8603 5.4058 16.5839 7.15216 16.5839 9.19565C16.5839 11.2391 15.8603 12.9855 14.4132 14.4348Z" fill="white"/>
</svg>
