<svg width="48" height="58" viewBox="0 0 48 58" fill="none" xmlns="http://www.w3.org/2000/svg">
<path d="M40.625 42.125H37.5V40.25C37.5 39.25 38 38.75 39 38.75H39.125C40.125 38.75 40.625 39.25 40.625 40.25V42.125ZM28.75 38.125C27.75 38.125 27.25 38.5417 27.25 39.375V48.25C27.25 49.0833 27.75 49.5 28.75 49.5C29.75 49.5 30.25 49.0833 30.25 48.25V39.375C30.25 38.5417 29.75 38.125 28.75 38.125ZM48 33.125V50.125C48 52.2083 47.2292 53.9583 45.6875 55.375C44.1458 56.7917 42.2917 57.5 40.125 57.5H7.875C5.70833 57.5 3.85417 56.7917 2.3125 55.375C0.770833 53.9583 0 52.2083 0 50.125V33.125C0 31.125 0.770833 29.3958 2.3125 27.9375C3.85417 26.4792 5.70833 25.75 7.875 25.75H40.125C42.2917 25.75 44.1458 26.4792 45.6875 27.9375C47.2292 29.3958 48 31.125 48 33.125ZM10 52V34.125H14V31.5L3.375 31.375V34H6.625V52H10ZM22 36.75H18.625V48.625C18.4583 49.0417 18.1667 49.3125 17.75 49.4375C17.3333 49.5625 17 49.3333 16.75 48.75V46.375L16.625 36.75H13.375V49.25C13.5417 50.6667 13.8333 51.5 14.25 51.75C15 52.25 15.9375 52.2708 17.0625 51.8125C18.1875 51.3542 18.9583 50.75 19.375 50V52H22V36.75ZM32.625 47.75V39.75C32.625 38.1667 32.125 37.0833 31.125 36.5C30.125 35.9167 28.875 36.2083 27.375 37.375V31.5H24V51.875H26.75L27 50.5C28.75 52 30.1458 52.4167 31.1875 51.75C32.2292 51.0833 32.7083 49.75 32.625 47.75ZM43.125 46.625H40.625V48.375C40.625 49.2917 40.1667 49.75 39.25 49.75H38.75C37.8333 49.75 37.375 49.2917 37.375 48.375V44.75H43.125V42.625C43.125 40.4583 43.0833 39.0833 43 38.5C42.75 37.1667 41.8542 36.3333 40.3125 36C38.7708 35.6667 37.5 35.875 36.5 36.625C35.8333 37.2083 35.375 37.8333 35.125 38.5C34.875 39.3333 34.75 40.4583 34.75 41.875V46.625C34.75 49.7083 35.9167 51.5 38.25 52C40.25 52.4167 41.7083 51.75 42.625 50C43.2083 49.0833 43.375 47.9583 43.125 46.625ZM30.25 20.875C30.4167 21.2917 30.7083 21.625 31.125 21.875C31.4583 22.125 31.9167 22.25 32.5 22.25C33 22.25 33.4167 22.125 33.75 21.875C34.0833 21.625 34.375 21.25 34.625 20.75V22H38.375V6.125H35.375V18.5C35.375 19.3333 34.9583 19.75 34.125 19.75C33.375 19.75 33 19.3333 33 18.5V6.125H29.875V16.875C29.875 18.375 29.9167 19.2917 30 19.625C30 19.9583 30.0833 20.375 30.25 20.875ZM19 12C19 10.5 19.125 9.29167 19.375 8.375C19.625 7.625 20.0833 6.95833 20.75 6.375C21.4167 5.875 22.25 5.625 23.25 5.625C24.1667 5.625 24.9167 5.79167 25.5 6.125C26.0833 6.375 26.5417 6.79167 26.875 7.375C27.2083 7.79167 27.4583 8.33333 27.625 9C27.7083 9.41667 27.75 10.2917 27.75 11.625V15.625C27.75 17.2917 27.7083 18.375 27.625 18.875C27.5417 19.4583 27.2917 20.0833 26.875 20.75C26.625 21.1667 26.1667 21.625 25.5 22.125C24.8333 22.375 24.1667 22.5 23.5 22.5C22.6667 22.5 21.9167 22.375 21.25 22.125C20.6667 21.875 20.2083 21.5 19.875 21C19.5417 20.3333 19.3333 19.75 19.25 19.25C19.0833 18.4167 19 17.375 19 16.125V12ZM21.875 18.25C21.875 18.6667 22.0208 19.0417 22.3125 19.375C22.6042 19.7083 22.9583 19.875 23.375 19.875C24.375 19.875 24.875 19.3333 24.875 18.25V9.875C24.875 8.79167 24.375 8.25 23.375 8.25C22.375 8.25 21.875 8.79167 21.875 9.875V18.25ZM11.625 22.5H15.125V10.375L19.25 0H15.5L13.25 7.75L11 0H7.25L11.625 10.375V22.5Z" fill="#D81F26"/>
</svg>
