<svg width="44" height="44" viewBox="0 0 44 44" fill="none" xmlns="http://www.w3.org/2000/svg">
<circle cx="22" cy="22" r="21" stroke="white" stroke-width="2"/>
<path d="M30.1589 27.0615H28.5312V26.2623C28.5312 25.8361 28.7917 25.623 29.3125 25.623H29.3776C29.8984 25.623 30.1589 25.8361 30.1589 26.2623V27.0615ZM23.974 25.3566C23.4531 25.3566 23.1927 25.5342 23.1927 25.8894V29.6721C23.1927 30.0273 23.4531 30.2049 23.974 30.2049C24.4948 30.2049 24.7552 30.0273 24.7552 29.6721V25.8894C24.7552 25.5342 24.4948 25.3566 23.974 25.3566ZM34 23.2254V30.4713C34 31.3593 33.5985 32.1052 32.7956 32.709C31.9926 33.3129 31.0269 33.6148 29.8984 33.6148H13.1016C11.9731 33.6148 11.0074 33.3129 10.2044 32.709C9.40148 32.1052 9 31.3593 9 30.4713V23.2254C9 22.373 9.40148 21.6359 10.2044 21.0144C11.0074 20.3928 11.9731 20.082 13.1016 20.082H29.8984C31.0269 20.082 31.9926 20.3928 32.7956 21.0144C33.5985 21.6359 34 22.373 34 23.2254ZM14.2083 31.2705V23.6517H16.2917V22.5328L10.7578 22.4795V23.5984H12.4505V31.2705H14.2083ZM20.4583 24.7705H18.7005V29.832C18.6137 30.0096 18.4618 30.125 18.2448 30.1783C18.0278 30.2316 17.8542 30.1339 17.724 29.8853V28.873L17.6589 24.7705H15.9661V30.0984C16.053 30.7022 16.2049 31.0574 16.4219 31.1639C16.8125 31.3771 17.3008 31.3859 17.8867 31.1906C18.4727 30.9952 18.8741 30.7377 19.0911 30.418V31.2705H20.4583V24.7705ZM25.9922 29.459V26.0492C25.9922 25.3743 25.7318 24.9126 25.2109 24.6639C24.6901 24.4153 24.0391 24.5396 23.2578 25.0369V22.5328H21.5V31.2172H22.9323L23.0625 30.6312C23.974 31.2705 24.701 31.4481 25.2435 31.1639C25.786 30.8798 26.0356 30.3115 25.9922 29.459ZM31.4609 28.9795H30.1589V29.7254C30.1589 30.1161 29.9201 30.3115 29.4427 30.3115H29.1823C28.7049 30.3115 28.4661 30.1161 28.4661 29.7254V28.1803H31.4609V27.2746C31.4609 26.3511 31.4392 25.765 31.3958 25.5164C31.2656 24.9481 30.799 24.5929 29.9961 24.4508C29.1931 24.3088 28.5312 24.3976 28.0104 24.7172C27.6632 24.9659 27.4245 25.2323 27.2943 25.5164C27.1641 25.8716 27.099 26.3511 27.099 26.9549V28.9795C27.099 30.2937 27.7066 31.0574 28.9219 31.2705C29.9635 31.4481 30.7231 31.1639 31.2005 30.418C31.5043 30.0273 31.5911 29.5478 31.4609 28.9795ZM24.7552 18.0041C24.842 18.1817 24.9939 18.3238 25.2109 18.4303C25.3845 18.5369 25.6233 18.5902 25.9271 18.5902C26.1875 18.5902 26.4045 18.5369 26.5781 18.4303C26.7517 18.3238 26.9036 18.1639 27.0339 17.9508V18.4836H28.987V11.7172H27.4245V16.9918C27.4245 17.347 27.2075 17.5246 26.7734 17.5246C26.3828 17.5246 26.1875 17.347 26.1875 16.9918V11.7172H24.5599V16.2992C24.5599 16.9385 24.5816 17.3292 24.625 17.4713C24.625 17.6134 24.6684 17.791 24.7552 18.0041ZM18.8958 14.2213C18.8958 13.582 18.9609 13.067 19.0911 12.6762C19.2214 12.3566 19.4601 12.0724 19.8073 11.8238C20.1545 11.6107 20.5885 11.5041 21.1094 11.5041C21.5868 11.5041 21.9774 11.5751 22.2812 11.7172C22.5851 11.8238 22.8238 12.0014 22.9974 12.25C23.171 12.4276 23.3012 12.6585 23.388 12.9426C23.4314 13.1202 23.4531 13.4932 23.4531 14.0615V15.7664C23.4531 16.4768 23.4314 16.9385 23.388 17.1516C23.3446 17.4003 23.2144 17.6667 22.9974 17.9508C22.8672 18.1284 22.6285 18.3238 22.2812 18.5369C21.934 18.6435 21.5868 18.6967 21.2396 18.6967C20.8056 18.6967 20.4149 18.6435 20.0677 18.5369C19.7639 18.4303 19.5252 18.2705 19.3516 18.0574C19.178 17.7732 19.0694 17.5246 19.026 17.3115C18.9392 16.9563 18.8958 16.5123 18.8958 15.9795V14.2213ZM20.3932 16.8853C20.3932 17.0629 20.4692 17.2227 20.6211 17.3648C20.773 17.5068 20.9575 17.5779 21.1745 17.5779C21.6953 17.5779 21.9557 17.347 21.9557 16.8853V13.3156C21.9557 12.8538 21.6953 12.623 21.1745 12.623C20.6536 12.623 20.3932 12.8538 20.3932 13.3156V16.8853ZM15.0547 18.6967H16.8776V13.5287L19.026 9.10657H17.0729L15.901 12.4098L14.7292 9.10657H12.776L15.0547 13.5287V18.6967Z" fill="#EEEEEE"/>
</svg>
